<svg width="29" height="29" viewBox="0 0 29 29" fill="none" xmlns="http://www.w3.org/2000/svg">
<path d="M0.966178 0C0.709802 0 0.463927 0.101845 0.282642 0.28313C0.101357 0.464415 -0.000488281 0.710291 -0.000488281 0.966667C-0.000488281 1.22304 0.101357 1.46892 0.282642 1.6502C0.463927 1.83149 0.709802 1.93333 0.966178 1.93333H3.11218L3.88744 5.0402L6.78358 20.4779C6.82505 20.6994 6.94261 20.8995 7.11594 21.0435C7.28927 21.1875 7.50748 21.2665 7.73284 21.2667H9.66618C8.64067 21.2667 7.65717 21.674 6.93203 22.3992C6.20689 23.1243 5.79951 24.1078 5.79951 25.1333C5.79951 26.1588 6.20689 27.1423 6.93203 27.8675C7.65717 28.5926 8.64067 29 9.66618 29C10.6917 29 11.6752 28.5926 12.4003 27.8675C13.1255 27.1423 13.5328 26.1588 13.5328 25.1333C13.5328 24.1078 13.1255 23.1243 12.4003 22.3992C11.6752 21.674 10.6917 21.2667 9.66618 21.2667H23.1995C22.174 21.2667 21.1905 21.674 20.4654 22.3992C19.7402 23.1243 19.3328 24.1078 19.3328 25.1333C19.3328 26.1588 19.7402 27.1423 20.4654 27.8675C21.1905 28.5926 22.174 29 23.1995 29C24.225 29 25.2085 28.5926 25.9337 27.8675C26.6588 27.1423 27.0662 26.1588 27.0662 25.1333C27.0662 24.1078 26.6588 23.1243 25.9337 22.3992C25.2085 21.674 24.225 21.2667 23.1995 21.2667H25.1328C25.3582 21.2665 25.5764 21.1875 25.7498 21.0435C25.9231 20.8995 26.0406 20.6994 26.0821 20.4779L28.9821 5.0112C29.0082 4.87168 29.0033 4.72813 28.9677 4.59073C28.9321 4.45334 28.8666 4.32547 28.776 4.21622C28.6854 4.10697 28.5718 4.01901 28.4434 3.9586C28.3149 3.89819 28.1748 3.8668 28.0328 3.86667H5.58684L4.80384 0.732733C4.75166 0.523516 4.63103 0.337751 4.46112 0.204981C4.29122 0.0722113 4.0818 5.95689e-05 3.86618 0H0.966178ZM11.5995 25.1333C11.5995 25.6461 11.3958 26.1378 11.0332 26.5004C10.6707 26.863 10.1789 27.0667 9.66618 27.0667C9.15343 27.0667 8.66168 26.863 8.2991 26.5004C7.93653 26.1378 7.73284 25.6461 7.73284 25.1333C7.73284 24.6206 7.93653 24.1288 8.2991 23.7663C8.66168 23.4037 9.15343 23.2 9.66618 23.2C10.1789 23.2 10.6707 23.4037 11.0332 23.7663C11.3958 24.1288 11.5995 24.6206 11.5995 25.1333ZM25.1328 25.1333C25.1328 25.6461 24.9292 26.1378 24.5666 26.5004C24.204 26.863 23.7123 27.0667 23.1995 27.0667C22.6868 27.0667 22.195 26.863 21.8324 26.5004C21.4699 26.1378 21.2662 25.6461 21.2662 25.1333C21.2662 24.6206 21.4699 24.1288 21.8324 23.7663C22.195 23.4037 22.6868 23.2 23.1995 23.2C23.7123 23.2 24.204 23.4037 24.5666 23.7663C24.9292 24.1288 25.1328 24.6206 25.1328 25.1333ZM17.3995 8.7V11.6H20.2995C20.5559 11.6 20.8018 11.7018 20.983 11.8831C21.1643 12.0644 21.2662 12.3103 21.2662 12.5667C21.2662 12.823 21.1643 13.0689 20.983 13.2502C20.8018 13.4315 20.5559 13.5333 20.2995 13.5333H17.3995V16.4333C17.3995 16.6897 17.2977 16.9356 17.1164 17.1169C16.9351 17.2982 16.6892 17.4 16.4328 17.4C16.1765 17.4 15.9306 17.2982 15.7493 17.1169C15.568 16.9356 15.4662 16.6897 15.4662 16.4333V13.5333H12.5662C12.3098 13.5333 12.0639 13.4315 11.8826 13.2502C11.7014 13.0689 11.5995 12.823 11.5995 12.5667C11.5995 12.3103 11.7014 12.0644 11.8826 11.8831C12.0639 11.7018 12.3098 11.6 12.5662 11.6H15.4662V8.7C15.4662 8.44362 15.568 8.19775 15.7493 8.01646C15.9306 7.83518 16.1765 7.73333 16.4328 7.73333C16.6892 7.73333 16.9351 7.83518 17.1164 8.01646C17.2977 8.19775 17.3995 8.44362 17.3995 8.7Z" fill="white"/>
</svg>
