<svg width="211" height="32" viewBox="0 0 211 32" fill="none" xmlns="http://www.w3.org/2000/svg">
<path d="M15.7757 1.88247C18.5287 1.88247 21.2199 2.71045 23.509 4.2617C25.798 5.81296 27.5822 8.01781 28.6357 10.5975C29.6892 13.1771 29.9649 16.0157 29.4278 18.7542C28.8907 21.4927 27.565 24.0082 25.6183 25.9826C23.6716 27.957 21.1914 29.3015 18.4913 29.8463C15.7911 30.391 12.9924 30.1114 10.4489 29.0429C7.90541 27.9744 5.73146 26.1649 4.20196 23.8433C2.67246 21.5217 1.85609 18.7922 1.85609 16C1.86036 12.2571 3.32826 8.6688 5.93776 6.02219C8.54727 3.37558 12.0853 1.88681 15.7757 1.88247ZM15.7757 0C12.6555 0 9.60548 0.938383 7.01118 2.69649C4.41689 4.45459 2.39488 6.95345 1.20086 9.87706C0.00683538 12.8007 -0.305576 16.0177 0.303132 19.1214C0.91184 22.2251 2.41433 25.0761 4.62059 27.3137C6.82686 29.5513 9.63782 31.0752 12.698 31.6926C15.7582 32.3099 18.9301 31.9931 21.8128 30.7821C24.6954 29.5711 27.1592 27.5203 28.8927 24.8891C30.6261 22.2579 31.5513 19.1645 31.5513 16C31.5513 11.7565 29.8893 7.68687 26.9308 4.68629C23.9722 1.68571 19.9596 0 15.7757 0Z" fill="white"/>
<path d="M23.929 11.2947H19.0394C19.0008 11.2931 18.9635 11.2802 18.9319 11.2578C18.9003 11.2353 18.8758 11.2041 18.8611 11.1679C18.8464 11.1317 18.8423 11.092 18.8492 11.0535C18.8561 11.015 18.8737 10.9793 18.9 10.9506L20.3582 9.47371C20.3953 9.43636 20.4453 9.41507 20.4976 9.41431H23.931C23.9846 9.41431 24.0359 9.43589 24.0738 9.4743C24.1117 9.51272 24.133 9.56482 24.133 9.61915V11.0919C24.1327 11.1188 24.1272 11.1454 24.1168 11.1702C24.1064 11.1949 24.0913 11.2174 24.0724 11.2362C24.0534 11.255 24.031 11.2699 24.0064 11.2799C23.9818 11.29 23.9555 11.295 23.929 11.2947Z" fill="white"/>
<path d="M12.5138 11.2948H7.62213C7.56857 11.2948 7.5172 11.2732 7.47932 11.2348C7.44145 11.1964 7.42017 11.1443 7.42017 11.0899V9.61304C7.42017 9.55872 7.44145 9.50661 7.47932 9.4682C7.5172 9.42978 7.56857 9.4082 7.62213 9.4082H11.0556C11.1059 9.41264 11.1527 9.43603 11.1869 9.47375L12.6471 10.9547C12.6719 10.9831 12.6885 11.0179 12.695 11.0553C12.7014 11.0927 12.6975 11.1311 12.6837 11.1664C12.6699 11.2017 12.6467 11.2323 12.6167 11.255C12.5867 11.2777 12.5511 11.2914 12.5138 11.2948Z" fill="white"/>
<path d="M23.9331 13.1753H7.61821C7.51112 13.1753 7.42432 13.2633 7.42432 13.3719V14.8611C7.42432 14.9697 7.51112 15.0578 7.61821 15.0578H23.9331C24.0402 15.0578 24.127 14.9697 24.127 14.8611V13.3719C24.127 13.2633 24.0402 13.1753 23.9331 13.1753Z" fill="white"/>
<path d="M23.9331 16.9402H7.61821C7.51112 16.9402 7.42432 17.0282 7.42432 17.1368V18.626C7.42432 18.7346 7.51112 18.8227 7.61821 18.8227H23.9331C24.0402 18.8227 24.127 18.7346 24.127 18.626V17.1368C24.127 17.0282 24.0402 16.9402 23.9331 16.9402Z" fill="white"/>
<path d="M23.9331 20.7051H7.61821C7.51112 20.7051 7.42432 20.7931 7.42432 20.9017V22.3909C7.42432 22.4995 7.51112 22.5876 7.61821 22.5876H23.9331C24.0402 22.5876 24.127 22.4995 24.127 22.3909V20.9017C24.127 20.7931 24.0402 20.7051 23.9331 20.7051Z" fill="white"/>
<path d="M44.9437 15.1132L45.1457 22.8152H40.9387V9.18311H46.8503L49.2739 16.5184H49.3688L51.4794 9.18311H57.5808V22.8152H53.184L53.3173 15.1521L53.2042 15.1337L50.6978 22.8172H47.5067L45.0387 15.1153L44.9437 15.1132Z" fill="white"/>
<path d="M64.8596 9.18311H69.6624L74.9014 22.8152H69.9855L69.2827 20.8118H65.0111L64.3466 22.8152H59.562L64.8596 9.18311ZM67.1944 13.9395L66.0936 17.3091H68.2769L67.1944 13.9395Z" fill="white"/>
<path d="M81.6736 23.1981C81.136 23.1985 80.5993 23.1505 80.07 23.0547C79.5522 22.9607 79.0439 22.8195 78.5512 22.6327C78.0763 22.4533 77.6163 22.2355 77.1758 21.9813C76.7629 21.7452 76.3751 21.4665 76.0186 21.1497L78.7754 18.118C79.1389 18.4994 79.5663 18.8122 80.0377 19.0419C80.5367 19.3063 81.0905 19.4467 81.6534 19.4515C81.891 19.4547 82.1267 19.4087 82.3462 19.3163C82.4446 19.2779 82.5282 19.2083 82.5846 19.118C82.641 19.0276 82.6672 18.9212 82.6592 18.8145C82.6623 18.6963 82.6252 18.5806 82.5542 18.4868C82.4502 18.3702 82.3246 18.2756 82.1846 18.2082C81.9541 18.0847 81.716 17.9766 81.4717 17.8845C81.162 17.7684 80.7729 17.6319 80.3043 17.4748C79.855 17.3239 79.417 17.1404 78.9935 16.9259C78.5876 16.7223 78.2133 16.4594 77.8827 16.1454C77.556 15.8317 77.2944 15.455 77.1132 15.0373C76.911 14.5459 76.8133 14.0168 76.8264 13.4846C76.8003 12.7291 76.9754 11.9804 77.3334 11.3174C77.6609 10.7435 78.1083 10.2492 78.6441 9.86916C79.1948 9.48429 79.8112 9.20647 80.4618 9.0498C81.1138 8.88452 81.7832 8.79992 82.4553 8.79785C83.3801 8.8056 84.2962 8.98183 85.1596 9.31814C86.0573 9.65141 86.881 10.1617 87.5832 10.8196L84.7738 13.7263C84.4761 13.3459 84.0913 13.045 83.6529 12.8496C83.2799 12.666 82.8735 12.5628 82.4593 12.5464C82.1861 12.5359 81.914 12.5855 81.6615 12.6918C81.5706 12.7303 81.4929 12.7951 81.4383 12.8782C81.3837 12.9613 81.3545 13.059 81.3545 13.1589C81.3545 13.2588 81.3837 13.3564 81.4383 13.4395C81.4929 13.5226 81.5706 13.5875 81.6615 13.6259C81.99 13.7753 82.3272 13.9039 82.6714 14.011C83.152 14.1653 83.6583 14.3449 84.1902 14.5497C84.7131 14.75 85.208 15.0186 85.6625 15.3486C86.1076 15.6717 86.4851 16.0811 86.7733 16.5531C87.0803 17.0903 87.2315 17.7044 87.2096 18.3249C87.2269 19.0703 87.0603 19.8082 86.7248 20.4716C86.4146 21.0666 85.9804 21.5859 85.4524 21.9936C84.9196 22.4019 84.3181 22.7087 83.6772 22.899C83.0271 23.0965 82.3522 23.1972 81.6736 23.1981Z" fill="white"/>
<path d="M98.2349 17.6368H94.551V22.8172H90.033V9.18311H94.5328V13.8043H98.2167V9.18311H102.755V22.8152H98.2349V17.6368Z" fill="white"/>
<path d="M112.34 23.1982C111.407 23.2177 110.478 23.0679 109.597 22.7558C108.873 22.494 108.21 22.0809 107.652 21.5431C107.136 21.0334 106.74 20.4115 106.495 19.7241C106.236 18.9993 106.106 18.2336 106.111 17.4627V9.18311H110.629V16.967C110.629 17.6211 110.784 18.1312 111.094 18.4971C111.446 18.8493 111.92 19.0467 112.414 19.0467C112.908 19.0467 113.382 18.8493 113.734 18.4971C114.043 18.1312 114.198 17.6211 114.198 16.967V9.18311H118.698V17.4627C118.705 18.2329 118.568 18.9974 118.294 19.7159C118.027 20.4053 117.613 21.0264 117.082 21.5349C116.51 22.0731 115.835 22.486 115.099 22.7476C114.213 23.061 113.279 23.2135 112.34 23.1982Z" fill="white"/>
<path d="M126.561 18.4255V22.8152H122.067V9.18312H127.839C128.518 9.18188 129.196 9.25607 129.859 9.40435C130.488 9.54042 131.087 9.79544 131.624 10.1561C132.147 10.5149 132.577 10.9971 132.876 11.5613C133.211 12.2482 133.37 13.0099 133.337 13.7756C133.359 14.5224 133.2 15.2633 132.872 15.9326C132.576 16.5013 132.154 16.9922 131.638 17.3664C131.106 17.7481 130.507 18.0227 129.873 18.1756C129.206 18.3427 128.521 18.4266 127.833 18.4255H126.561ZM126.561 12.7453V14.9412H127.51C127.841 14.9439 128.166 14.8539 128.449 14.681C128.593 14.5888 128.709 14.4582 128.784 14.3036C128.86 14.1489 128.892 13.9762 128.877 13.8043C128.885 13.6212 128.846 13.4391 128.764 13.2758C128.69 13.142 128.581 13.0315 128.449 12.9563C128.31 12.877 128.159 12.8216 128.003 12.7924C127.84 12.7603 127.675 12.7438 127.51 12.7432L126.561 12.7453Z" fill="white"/>
<path d="M145.574 10.3895C145.915 9.57012 146.572 8.76714 147.515 8.76714C147.898 8.76193 148.28 8.82502 148.642 8.95355V10.5492C147.747 10.5343 146.854 10.6509 145.992 10.8954C146.598 11.5878 146.937 12.7042 146.937 13.7939C146.937 16.8788 144.603 18.6629 141.666 18.6629C140.84 18.6711 140.019 18.5424 139.234 18.2819C138.788 18.6814 138.212 19.1853 138.212 19.8244C138.212 20.4635 138.527 20.8363 140.153 20.9141L143.878 21.119C146.606 21.2787 148.153 21.9977 148.153 24.6299C148.153 27.9544 144.508 28.8066 141.359 28.8066C136.324 28.8066 135.502 26.8647 135.502 25.3755C135.502 23.6999 136.734 22.688 137.679 22.0243C136.891 21.7847 136.368 21.205 136.368 20.2955C136.368 19.2058 137.156 18.4868 138.02 17.7944C137.102 17.3151 136.421 16.3605 136.132 15.1602C136.025 14.7527 135.972 14.3324 135.975 13.9107C135.975 10.879 138.196 8.93511 141.535 8.93511C143.239 8.95355 144.657 9.32636 145.574 10.3895ZM143.817 22.7331L139.042 22.4668C138.047 23.1858 137.312 23.9826 137.312 25.0744C137.312 26.244 138.099 27.2826 141.64 27.2826C144.813 27.2826 146.309 26.2993 146.309 24.5951C146.303 23.5832 145.81 22.8396 143.817 22.7331ZM141.613 10.4161C139.515 10.4161 137.821 11.3993 137.821 13.7755C137.821 15.744 138.921 17.1533 141.571 17.1533C143.775 17.1533 145.19 15.8771 145.19 13.8287C145.18 11.5058 143.88 10.4161 141.613 10.4161Z" fill="white"/>
<path d="M160 20.6314C160 21.377 160.132 21.6966 160.808 21.6966C161.084 21.685 161.356 21.6311 161.616 21.5368L161.721 22.6798C161.227 22.9371 160.677 23.0653 160.122 23.0526C158.89 23.0526 158.443 22.2804 158.391 21.3504C157.395 22.4156 155.82 23.1325 153.931 23.1325C150.522 23.1325 149.971 20.7646 149.971 19.4618C149.971 15.6047 153.432 14.8857 156.476 14.8857C157.237 14.8857 157.708 14.9123 158.233 14.9389V13.5808C158.233 11.5058 157.656 10.3894 155.321 10.3894C153.196 10.3894 152.461 11.2416 152.174 12.8373L150.532 12.5464C150.952 10.0187 152.578 8.95557 155.438 8.95557C158.637 8.95557 160.002 10.2317 160.002 13.6116L160 20.6314ZM158.27 16.3748C157.721 16.3127 157.169 16.286 156.617 16.295C154.782 16.295 151.817 16.4281 151.817 19.1934C151.817 20.5228 152.289 21.6945 154.361 21.6945C155.909 21.6945 157.431 20.8158 158.27 19.8325V16.3748Z" fill="white"/>
<path d="M170.86 10.8155C169.208 10.5226 167.136 11.2949 166.033 12.3846V22.813H164.278V9.21984H165.72L165.878 11.1085C167.162 9.35298 168.606 8.92692 170.442 8.95355H170.862L170.86 10.8155Z" fill="white"/>
<path d="M182.085 20.6314C182.085 21.377 182.217 21.6966 182.893 21.6966C183.169 21.685 183.441 21.6311 183.701 21.5368L183.806 22.6798C183.312 22.9371 182.762 23.0653 182.207 23.0526C180.975 23.0526 180.528 22.2804 180.476 21.3504C179.48 22.4156 177.905 23.1325 176.016 23.1325C172.607 23.1325 172.056 20.7646 172.056 19.4618C172.056 15.6047 175.517 14.8857 178.561 14.8857C179.322 14.8857 179.793 14.9123 180.318 14.9389V13.5808C180.318 11.5058 179.741 10.3894 177.406 10.3894C175.281 10.3894 174.546 11.2416 174.259 12.8373L172.617 12.5464C173.037 10.0187 174.663 8.95557 177.523 8.95557C180.722 8.95557 182.087 10.2317 182.087 13.6116L182.085 20.6314ZM180.355 16.3748C179.806 16.3127 179.254 16.286 178.702 16.295C176.867 16.295 173.902 16.4281 173.902 19.1934C173.902 20.5228 174.374 21.6945 176.446 21.6945C177.994 21.6945 179.516 20.8158 180.355 19.8325V16.3748Z" fill="white"/>
<path d="M195.304 10.3895C195.646 9.57012 196.302 8.76714 197.245 8.76714C197.629 8.76193 198.01 8.82502 198.372 8.95355V10.5492C197.477 10.5343 196.585 10.6509 195.722 10.8954C196.328 11.5878 196.668 12.7042 196.668 13.7939C196.668 16.8788 194.333 18.6629 191.396 18.6629C190.568 18.672 189.744 18.5433 188.956 18.2819C188.51 18.6814 187.935 19.1853 187.935 19.8244C187.935 20.4635 188.25 20.8363 189.875 20.9141L193.6 21.119C196.328 21.2787 197.875 21.9977 197.875 24.6299C197.875 27.9544 194.23 28.8066 191.081 28.8066C186.046 28.8066 185.224 26.8647 185.224 25.3755C185.224 23.6999 186.456 22.688 187.401 22.0243C186.614 21.7847 186.091 21.205 186.091 20.2955C186.091 19.2058 186.878 18.4868 187.743 17.7944C186.824 17.3151 186.143 16.3605 185.854 15.1602C185.747 14.7527 185.694 14.3324 185.697 13.9107C185.697 10.879 187.918 8.93511 191.257 8.93511C192.97 8.95355 194.387 9.32636 195.304 10.3895ZM193.547 22.7331L188.773 22.4668C187.777 23.1858 187.042 23.9826 187.042 25.0744C187.042 26.244 187.829 27.2826 191.37 27.2826C194.543 27.2826 196.039 26.2993 196.039 24.5951C196.039 23.5832 195.541 22.8396 193.547 22.7331ZM191.342 10.4161C189.243 10.4161 187.539 11.3993 187.539 13.7673C187.539 15.7358 188.639 17.1451 191.289 17.1451C193.493 17.1451 194.908 15.8689 194.908 13.8205C194.91 11.5058 193.6 10.4161 191.342 10.4161Z" fill="white"/>
<path d="M199.58 16.0288C199.58 11.0532 202.408 8.95361 205.797 8.95361C209.468 8.95361 210.963 11.4813 210.963 14.726C210.937 15.2586 210.91 15.8157 210.832 16.3749H201.44C201.545 20.4451 203.407 21.5369 205.742 21.5369C207.841 21.5369 208.707 20.6581 209.125 18.9559L210.777 19.2755C210.2 21.963 208.075 23.1326 205.611 23.1326C200.943 23.1326 199.58 19.7794 199.58 16.0288ZM209.127 14.939C209.18 12.1368 208.131 10.4981 205.639 10.4981C203.593 10.4981 201.6 11.7743 201.468 14.9411L209.127 14.939Z" fill="white"/>
</svg>
