<svg width="195" height="195" viewBox="0 0 195 195" fill="none" xmlns="http://www.w3.org/2000/svg">
<path d="M97.5 195C78.2164 195 59.3657 189.282 43.3319 178.568C27.2982 167.855 14.8013 152.627 7.42179 134.812C0.0422456 116.996 -1.88858 97.3919 1.87348 78.4787C5.63554 59.5656 14.9215 42.1927 28.5571 28.5571C42.1928 14.9215 59.5656 5.63554 78.4787 1.87348C97.3919 -1.88858 116.996 0.042245 134.812 7.42179C152.627 14.8013 167.855 27.2981 178.568 43.3319C189.282 59.3657 195 78.2164 195 97.5C194.973 123.35 184.692 148.134 166.413 166.413C148.134 184.692 123.35 194.973 97.5 195V195ZM97.5 9.49008C80.0858 9.49008 63.0627 14.654 48.5833 24.3288C34.1039 34.0036 22.8186 47.7548 16.1545 63.8435C9.49033 79.9321 7.74669 97.6356 11.144 114.715C14.5414 131.795 22.9271 147.483 35.2408 159.797C47.5545 172.111 63.2432 180.497 80.3228 183.894C97.4024 187.291 115.106 185.548 131.194 178.883C147.283 172.219 161.034 160.934 170.709 146.455C180.384 131.975 185.548 114.952 185.548 97.5379C185.531 74.1878 176.251 51.7983 159.743 35.2837C143.236 18.7692 120.85 9.47895 97.5 9.45222V9.49008Z" fill="#DD2459"/>
<path d="M120.531 64.36L126.386 58.5045C126.552 58.3395 126.749 58.2088 126.966 58.1201C127.182 58.0313 127.414 57.9861 127.648 57.9871H146.83C147.302 57.9871 147.755 58.1745 148.089 58.5082C148.422 58.8419 148.61 59.2945 148.61 59.7665V65.622C148.61 66.0939 148.422 66.5465 148.089 66.8802C147.755 67.2139 147.302 67.4014 146.83 67.4014H121.793C121.44 67.4029 121.094 67.2993 120.8 67.1039C120.506 66.9085 120.277 66.6301 120.142 66.304C120.007 65.9779 119.971 65.619 120.041 65.2728C120.11 64.9266 120.281 64.6089 120.531 64.36V64.36Z" fill="white"/>
<path d="M46.3902 65.622V59.7665C46.3902 59.2989 46.5742 58.8501 46.9024 58.5171C47.2307 58.1841 47.6768 57.9937 48.1443 57.9871H67.3263C67.5604 57.9861 67.7923 58.0313 68.0089 58.1201C68.2254 58.2088 68.4223 58.3395 68.5883 58.5045L74.4691 64.36C74.7195 64.6089 74.8902 64.9266 74.9594 65.2728C75.0287 65.619 74.9935 65.9779 74.8582 66.304C74.7229 66.6301 74.4936 66.9085 74.1996 67.1039C73.9056 67.2993 73.5601 67.4029 73.2071 67.4014H48.1443C47.6768 67.3948 47.2307 67.2044 46.9024 66.8714C46.5742 66.5384 46.3902 66.0896 46.3902 65.622V65.622Z" fill="white"/>
<path d="M146.831 81.1819H48.1696C47.1869 81.1819 46.3902 81.9785 46.3902 82.9613V88.8547C46.3902 89.8374 47.1869 90.6341 48.1696 90.6341H146.831C147.813 90.6341 148.61 89.8374 148.61 88.8547V82.9613C148.61 81.9785 147.813 81.1819 146.831 81.1819Z" fill="white"/>
<path d="M148.61 112.038V106.144C148.61 105.162 147.813 104.365 146.83 104.365H48.1695C47.1868 104.365 46.3901 105.162 46.3901 106.144V112.038C46.3901 113.021 47.1868 113.817 48.1695 113.817H146.83C147.813 113.817 148.61 113.021 148.61 112.038Z" fill="white"/>
<path d="M148.61 135.247V129.353C148.61 128.37 147.813 127.574 146.83 127.574H48.1695C47.1868 127.574 46.3901 128.37 46.3901 129.353V135.247C46.3901 136.229 47.1868 137.026 48.1695 137.026H146.83C147.813 137.026 148.61 136.229 148.61 135.247Z" fill="white"/>
</svg>
